<svg xmlns="http://www.w3.org/2000/svg" viewBox="0 0 505.72 491.34"><defs><style>.cls-1{stroke:#000;stroke-miterlimit:10;}</style></defs><title>covidmap_logo_1</title><g id="Layer_2" data-name="Layer 2"><g id="Layer_1-2" data-name="Layer 1"><path class="cls-1" d="M441.92,41.42C431.33,32.55,390.16.15,328.54.5,268.17.85,227.92,32.4,217.16,41.42A229.12,229.12,0,0,0,214.54,76a226.4,226.4,0,0,0,115,197.19A226.4,226.4,0,0,0,444.54,76,229.12,229.12,0,0,0,441.92,41.42ZM329.54,106.5a34,34,0,1,1,34-34A34,34,0,0,1,329.54,106.5Z"/><path class="cls-1" d="M451.49,154.93h-1.42a265.92,265.92,0,0,1-81.21,117.86,23.69,23.69,0,0,1,.94,6.56c0,16.89-18,30.58-40.19,30.58s-40.19-13.69-40.19-30.58a23.69,23.69,0,0,1,.91-6.46A266.42,266.42,0,0,1,220,182.12L209.14,354.93h274.3Z"/><polygon class="cls-1" points="200.56 490.84 505.14 490.84 485.99 370.94 208.13 370.94 200.56 490.84"/><polygon class="cls-1" points="205.73 154.94 82.38 154.94 33.71 354.94 193.1 354.94 205.73 154.94"/><polygon class="cls-1" points="0.64 490.84 184.52 490.84 192.09 370.94 29.82 370.94 0.64 490.84"/></g></g></svg>